<?xml version="1.0" encoding="UTF-8"?>
<svg width="680" height="680" viewBox="0 0 680 680" role="img" xmlns="http://www.w3.org/2000/svg">
<title>Station to Station — midnight variant</title>
<desc>High-contrast screenprint sleeve: a stylized figure between a black QuietBox 2 (left) and a purple iMac G3 (right) on a lit stage.</desc>
<rect x="0" y="0" width="680" height="680" fill="#0A0A0B"/>
<polygon points="340,318 250,680 430,680" fill="#141519"/>
<polygon points="340,318 300,680 380,680" fill="#1B1D22"/>
<g stroke="#212227" stroke-width="1">
<line x1="0" y1="680" x2="315" y2="332"/><line x1="120" y1="680" x2="325" y2="332"/>
<line x1="560" y1="680" x2="355" y2="332"/><line x1="680" y1="680" x2="365" y2="332"/>
</g>
<rect x="0" y="470" width="680" height="3" fill="#16171B"/>
<rect x="0" y="540" width="680" height="4" fill="#141519"/>
<polygon points="340,120 214,470 466,470" fill="#101115"/>
<polygon points="340,150 268,470 412,470" fill="#15161B"/>
<g>
<rect x="70" y="372" width="150" height="158" rx="10" fill="#0E1014"/>
<rect x="70" y="372" width="150" height="158" rx="10" fill="none" stroke="#2A2E36" stroke-width="1.5"/>
<rect x="70" y="372" width="6" height="158" rx="3" fill="#191C22"/>
<g fill="#22262E"><rect x="90" y="392" width="110" height="5" rx="2.5"/><rect x="90" y="404" width="110" height="5" rx="2.5"/><rect x="90" y="416" width="110" height="5" rx="2.5"/><rect x="90" y="428" width="110" height="5" rx="2.5"/></g>
<rect x="90" y="455" width="34" height="34" rx="6" fill="#0A0C0F" stroke="#2A2E36" stroke-width="1"/>
<path d="M98 483 L112 461 M107 483 L121 461" stroke="#4FD1C5" stroke-width="2.5" fill="none" stroke-linecap="round"/>
<rect x="150" y="462" width="48" height="6" rx="3" fill="#4FD1C5"/>
<circle cx="205" cy="384" r="2.6" fill="#4FD1C5"/>
<rect x="86" y="530" width="14" height="9" rx="2" fill="#0A0C0F"/><rect x="190" y="530" width="14" height="9" rx="2" fill="#0A0C0F"/>
</g>
<g>
<ellipse cx="547" cy="512" rx="70" ry="20" fill="#2E2450"/>
<path d="M512 470 Q505 512 547 520 Q589 512 582 470 Z" fill="#3A2B63"/>
<rect x="474" y="356" width="146" height="132" rx="34" fill="#6E4AA6"/>
<rect x="474" y="356" width="146" height="132" rx="34" fill="none" stroke="#9A76C9" stroke-width="1.5"/>
<path d="M486 372 Q484 400 486 452" stroke="#b79fe0" stroke-width="6" fill="none" stroke-linecap="round" opacity="0.6"/>
<rect x="494" y="374" width="106" height="82" rx="9" fill="#150E20"/>
<rect x="494" y="374" width="106" height="82" rx="9" fill="none" stroke="#2a1f40" stroke-width="1"/>
<g stroke="#241a38" stroke-width="1"><line x1="500" y1="386" x2="594" y2="386"/><line x1="500" y1="398" x2="594" y2="398"/><line x1="500" y1="410" x2="594" y2="410"/></g>
<circle cx="547" cy="472" r="6.5" fill="#3a2b63" stroke="#9a76c9" stroke-width="1.2"/>
</g>
<polygon points="266,560 266,352 300,322 340,314 380,322 414,352 414,560" fill="#0D0E12"/>
<polygon points="266,560 266,352 300,322 340,314 340,560" fill="#111318"/>
<path d="M266,352 L300,322 L340,314 L380,322 L414,352" fill="none" stroke="#3C4048" stroke-width="1.5"/>
<line x1="266" y1="560" x2="266" y2="352" stroke="#33373f" stroke-width="1"/>
<polygon points="326,326 354,326 340,432 332,432" fill="#E9EBEF"/>
<polygon points="333,326 347,326 344,372 336,372" fill="#0C0D11"/>
<rect x="331" y="292" width="20" height="40" fill="#5b6069"/>
<polygon points="331,292 351,292 358,314 324,314" fill="#0D0E12"/>
<polygon points="322,300 320,214 328,168 356,158 376,178 378,236 366,286 344,300" fill="#7E838C"/>
<polygon points="356,158 376,178 378,236 366,286 350,262 352,196" fill="#C7CBD1"/>
<polygon points="322,300 320,214 328,168 340,168 340,262 344,300" fill="#3A3D44"/>
<path d="M320,206 Q316,150 352,142 Q384,140 382,182 Q372,158 344,158 Q326,162 326,206 Z" fill="#0C0D10"/>
<polygon points="360,196 372,193 371,203 360,205" fill="#EAECEF"/>
<circle cx="366" cy="199" r="2.6" fill="#0A0B0E"/>
<path d="M349,214 L356,222 L349,226" fill="none" stroke="#4a4e56" stroke-width="1.6" stroke-linecap="round"/>
<path d="M352,250 L366,247" fill="none" stroke="#3a3d44" stroke-width="2" stroke-linecap="round"/>
<line x1="266" y1="352" x2="300" y2="322" stroke="#4a4e56" stroke-width="1"/>
<line x1="414" y1="352" x2="380" y2="322" stroke="#5a5f68" stroke-width="1"/>
<text x="340" y="620" text-anchor="middle" fill="#F3F4F6" style="font-family:Helvetica,Arial,sans-serif;font-size:44px;letter-spacing:6px;font-weight:700">STATION TO STATION</text>
<text x="340" y="650" text-anchor="middle" fill="#4FD1C5" style="font-family:Helvetica,Arial,sans-serif;font-size:14px;letter-spacing:3px;font-weight:400">Your Mac &#8644; Your QuietBox &#183; tt-station</text>
</svg>
